<svg width="1526" height="373" viewBox="0 0 1526 373" fill="none" xmlns="http://www.w3.org/2000/svg">
<path d="M315.981 268.404V122.431L184.774 40.4313L0.74646 122.431V268.404L130.5 349.5L315.981 268.404Z" fill="#FCFCFC"/>
<path d="M0.762939 122.431L130.516 203.527V349.5L0.762939 268.404V122.431Z" fill="#E8E8E8"/>
<path d="M130.442 203.524L0.5 122.5L184.793 40.5L316 122.5L130.442 203.524Z" fill="#FCFCFC"/>
<path d="M130.517 349.5V203.527L315.998 122.431V268.404L130.517 349.5Z" fill="#C4C4C4"/>
<path d="M261.108 113.783L181.608 63.7826C176.698 60.6959 171.108 60.7826 164.608 63.7826C158.108 66.2826 155.698 72.6959 160.608 75.7826L242.262 126.828C247.172 129.915 256.608 129.283 262.108 125.783C267.608 122.283 266.017 116.869 261.108 113.783Z" fill="#9F9F9F"/>
<path d="M162 127.955L109.608 96.7826C104.698 93.6959 99.1077 93.7826 92.6077 96.7826L49.3454 115.955C42.8455 118.455 40.4361 124.868 45.3454 127.955L99.8925 160.172C104.802 163.259 114.238 162.627 119.738 159.127L163 139.955C168.5 136.455 166.909 131.041 162 127.955Z" fill="#C4C4C4"/>
<path d="M227.108 128.783L147.608 78.7826C142.698 75.6959 137.108 75.7826 130.608 78.7826C124.108 81.2826 121.698 87.6959 126.608 90.7826L208.262 141.828C213.172 144.915 222.608 144.283 228.108 140.783C233.608 137.283 232.017 131.869 227.108 128.783Z" fill="#D5D5D5"/>
<path d="M453.392 187.88L437.552 156.2H436.112L440.72 187.88V293H403.28V89.96H432.08L508.4 197.384L523.664 228.2H525.104L520.496 197.384V91.4H557.936V294.44H529.136L453.392 187.88ZM584.785 221C584.785 196.616 590.737 177.896 602.641 164.84C614.545 151.592 631.249 144.968 652.753 144.968C664.273 144.968 674.257 146.792 682.705 150.44C691.153 154.088 698.161 159.272 703.729 165.992C709.297 172.52 713.425 180.488 716.113 189.896C718.993 199.304 720.433 209.672 720.433 221C720.433 245.384 714.481 264.2 702.577 277.448C690.865 290.504 674.257 297.032 652.753 297.032C641.233 297.032 631.249 295.208 622.801 291.56C614.353 287.912 607.249 282.824 601.489 276.296C595.921 269.576 591.697 261.512 588.817 252.104C586.129 242.696 584.785 232.328 584.785 221ZM623.377 221C623.377 227.336 623.953 233.192 625.105 238.568C626.257 243.944 627.985 248.648 630.289 252.68C632.593 256.712 635.569 259.88 639.217 262.184C643.057 264.296 647.569 265.352 652.753 265.352C662.545 265.352 669.841 261.8 674.641 254.696C679.441 247.592 681.841 236.36 681.841 221C681.841 207.752 679.633 197.096 675.217 189.032C670.801 180.776 663.313 176.648 652.753 176.648C643.537 176.648 636.337 180.104 631.153 187.016C625.969 193.928 623.377 205.256 623.377 221ZM731.409 149H751.281V121.928L788.721 111.272V149H823.857V180.68H788.721V235.976C788.721 245.96 789.681 253.16 791.601 257.576C793.713 261.8 797.553 263.912 803.121 263.912C806.961 263.912 810.225 263.528 812.913 262.76C815.793 261.992 818.961 260.84 822.417 259.304L829.041 288.104C823.857 290.6 817.809 292.712 810.897 294.44C803.985 296.168 796.977 297.032 789.873 297.032C776.625 297.032 766.833 293.672 760.497 286.952C754.353 280.04 751.281 268.808 751.281 253.256V180.68H731.409V149ZM960.585 280.616C954.825 285.224 946.953 289.16 936.969 292.424C927.177 295.496 916.713 297.032 905.577 297.032C882.345 297.032 865.353 290.312 854.601 276.872C843.849 263.24 838.473 244.616 838.473 221C838.473 195.656 844.521 176.648 856.617 163.976C868.713 151.304 885.705 144.968 907.593 144.968C914.889 144.968 921.993 145.928 928.905 147.848C935.817 149.768 941.961 152.936 947.337 157.352C952.713 161.768 957.033 167.72 960.297 175.208C963.561 182.696 965.193 192.008 965.193 203.144C965.193 207.176 964.905 211.496 964.329 216.104C963.945 220.712 963.273 225.512 962.313 230.504H875.913C876.489 242.6 879.561 251.72 885.129 257.864C890.889 264.008 900.105 267.08 912.777 267.08C920.649 267.08 927.657 265.928 933.801 263.624C940.137 261.128 944.937 258.632 948.201 256.136L960.585 280.616ZM907.017 174.92C897.225 174.92 889.929 177.896 885.129 183.848C880.521 189.608 877.737 197.384 876.777 207.176H930.345C931.113 196.808 929.481 188.84 925.449 183.272C921.609 177.704 915.465 174.92 907.017 174.92ZM991.635 149H1018.99L1023.31 166.28H1024.47C1029.46 158.984 1035.31 153.608 1042.03 150.152C1048.95 146.696 1057.3 144.968 1067.09 144.968C1085.14 144.968 1098.67 150.728 1107.7 162.248C1116.72 173.576 1121.23 191.912 1121.23 217.256C1121.23 229.544 1119.79 240.68 1116.91 250.664C1114.03 260.456 1109.71 268.808 1103.95 275.72C1098.39 282.632 1091.47 287.912 1083.22 291.56C1075.15 295.208 1065.84 297.032 1055.28 297.032C1049.33 297.032 1044.43 296.552 1040.59 295.592C1036.75 294.824 1032.91 293.48 1029.07 291.56V350.6H991.635V149ZM1055.86 176.648C1048.56 176.648 1042.8 178.472 1038.58 182.12C1034.55 185.768 1031.38 191.24 1029.07 198.536V258.44C1031.76 260.552 1034.64 262.28 1037.71 263.624C1040.98 264.776 1045.2 265.352 1050.39 265.352C1061.14 265.352 1069.2 261.608 1074.58 254.12C1079.95 246.44 1082.64 233.864 1082.64 216.392C1082.64 203.72 1080.53 193.928 1076.31 187.016C1072.08 180.104 1065.27 176.648 1055.86 176.648ZM1140.25 221C1140.25 196.616 1146.21 177.896 1158.11 164.84C1170.01 151.592 1186.72 144.968 1208.22 144.968C1219.74 144.968 1229.73 146.792 1238.17 150.44C1246.62 154.088 1253.63 159.272 1259.2 165.992C1264.77 172.52 1268.89 180.488 1271.58 189.896C1274.46 199.304 1275.9 209.672 1275.9 221C1275.9 245.384 1269.95 264.2 1258.05 277.448C1246.33 290.504 1229.73 297.032 1208.22 297.032C1196.7 297.032 1186.72 295.208 1178.27 291.56C1169.82 287.912 1162.72 282.824 1156.96 276.296C1151.39 269.576 1147.17 261.512 1144.29 252.104C1141.6 242.696 1140.25 232.328 1140.25 221ZM1178.85 221C1178.85 227.336 1179.42 233.192 1180.57 238.568C1181.73 243.944 1183.45 248.648 1185.76 252.68C1188.06 256.712 1191.04 259.88 1194.69 262.184C1198.53 264.296 1203.04 265.352 1208.22 265.352C1218.01 265.352 1225.31 261.8 1230.11 254.696C1234.91 247.592 1237.31 236.36 1237.31 221C1237.31 207.752 1235.1 197.096 1230.69 189.032C1226.27 180.776 1218.78 176.648 1208.22 176.648C1199.01 176.648 1191.81 180.104 1186.62 187.016C1181.44 193.928 1178.85 205.256 1178.85 221ZM1294.94 221C1294.94 196.616 1300.89 177.896 1312.8 164.84C1324.7 151.592 1341.41 144.968 1362.91 144.968C1374.43 144.968 1384.41 146.792 1392.86 150.44C1401.31 154.088 1408.32 159.272 1413.89 165.992C1419.45 172.52 1423.58 180.488 1426.27 189.896C1429.15 199.304 1430.59 209.672 1430.59 221C1430.59 245.384 1424.64 264.2 1412.73 277.448C1401.02 290.504 1384.41 297.032 1362.91 297.032C1351.39 297.032 1341.41 295.208 1332.96 291.56C1324.51 287.912 1317.41 282.824 1311.65 276.296C1306.08 269.576 1301.85 261.512 1298.97 252.104C1296.29 242.696 1294.94 232.328 1294.94 221ZM1333.53 221C1333.53 227.336 1334.11 233.192 1335.26 238.568C1336.41 243.944 1338.14 248.648 1340.45 252.68C1342.75 256.712 1345.73 259.88 1349.37 262.184C1353.21 264.296 1357.73 265.352 1362.91 265.352C1372.7 265.352 1380 261.8 1384.8 254.696C1389.6 247.592 1392 236.36 1392 221C1392 207.752 1389.79 197.096 1385.37 189.032C1380.96 180.776 1373.47 176.648 1362.91 176.648C1353.69 176.648 1346.49 180.104 1341.31 187.016C1336.13 193.928 1333.53 205.256 1333.53 221ZM1495.13 244.616C1495.13 251.336 1496 256.232 1497.73 259.304C1499.45 262.376 1502.24 263.912 1506.08 263.912C1508.38 263.912 1510.59 263.72 1512.7 263.336C1515.01 262.952 1517.79 262.088 1521.05 260.744L1525.09 290.12C1522.01 291.656 1517.31 293.192 1510.97 294.728C1504.64 296.264 1498.11 297.032 1491.39 297.032C1480.45 297.032 1472.09 294.536 1466.33 289.544C1460.57 284.36 1457.69 275.912 1457.69 264.2V91.4H1495.13V244.616Z" fill="white"/>
</svg>
