<svg width="316" height="310" viewBox="0 0 316 310" fill="none" xmlns="http://www.w3.org/2000/svg">
<path d="M315.981 228.404V82.4313L184.774 0.431274L0.74646 82.4313V228.404L130.5 309.5L315.981 228.404Z" fill="#FCFCFC"/>
<path d="M0.762939 82.4313L130.516 163.527V309.5L0.762939 228.404V82.4313Z" fill="#E8E8E8"/>
<path d="M130.442 163.524L0.5 82.5L184.793 0.5L316 82.5L130.442 163.524Z" fill="#FCFCFC"/>
<path d="M130.517 309.5V163.527L315.998 82.4313V228.404L130.517 309.5Z" fill="#C4C4C4"/>
<path d="M261.108 73.7826L181.608 23.7826C176.698 20.6959 171.108 20.7826 164.608 23.7826C158.108 26.2826 155.698 32.6959 160.608 35.7826L242.262 86.8279C247.172 89.9145 256.608 89.2826 262.108 85.7826C267.608 82.2826 266.017 76.8692 261.108 73.7826Z" fill="#9F9F9F"/>
<path d="M162 87.9546L109.608 56.7826C104.698 53.6959 99.1077 53.7826 92.6077 56.7826L49.3454 75.9547C42.8455 78.4547 40.4361 84.868 45.3454 87.9546L99.8925 120.172C104.802 123.259 114.238 122.627 119.738 119.127L163 99.9546C168.5 96.4546 166.909 91.0413 162 87.9546Z" fill="#C4C4C4"/>
<path d="M227.108 88.7826L147.608 38.7826C142.698 35.6959 137.108 35.7826 130.608 38.7826C124.108 41.2826 121.698 47.6959 126.608 50.7826L208.262 101.828C213.172 104.915 222.608 104.283 228.108 100.783C233.608 97.2826 232.017 91.8692 227.108 88.7826Z" fill="#D5D5D5"/>
</svg>
